# xmcd
#
# Track frame offsets:
#	225
#	17870
#	38971
#	53274
#	65315
#	86945
#	105883
#	131969
#	145935
#
# Disc length: 2154 seconds
#
# Revision: 0
# Processed by: cddbd v1.5.2PL0 Copyright (c) Steve Scherf et al.
# Submitted via: EasyCDDAExtractor 2010.4.0.0
#
DISCID=76086709
DTITLE=Andrew Baxter - Middle Class Blues Singer
DYEAR=2010
DGENRE=Blues
TTITLE0=Spirit
TTITLE1=Time
TTITLE2=You Upset Me Baby
TTITLE3=Middle Class Blues Singer
TTITLE4=Bow River
TTITLE5=The  More You Drink
TTITLE6=Hurts Me Too
TTITLE7=Responsibility
TTITLE8=Sunday
EXTD=
EXTT0=
EXTT1=
EXTT2=
EXTT3=
EXTT4=
EXTT5=
EXTT6=
EXTT7=
EXTT8=
PLAYORDER=
